<svg width="24" height="24" viewBox="0 0 24 24" fill="none" xmlns="http://www.w3.org/2000/svg">
<path fill-rule="evenodd" clip-rule="evenodd" d="M13.4717 5.47052C13.3312 5.61116 13.2523 5.8018 13.2523 6.00056C13.2523 6.19933 13.3312 6.38997 13.4717 6.53061L18.192 11.251H4.0009C3.80197 11.251 3.61119 11.33 3.47052 11.4707C3.32986 11.6113 3.25084 11.8021 3.25084 12.001C3.25084 12.2 3.32986 12.3908 3.47052 12.5314C3.61119 12.6721 3.80197 12.7511 4.0009 12.7511H18.192L13.4717 17.4715C13.398 17.5402 13.3389 17.623 13.2979 17.715C13.2569 17.807 13.2348 17.9063 13.233 18.007C13.2313 18.1077 13.2498 18.2078 13.2875 18.3012C13.3252 18.3946 13.3814 18.4794 13.4526 18.5506C13.5238 18.6218 13.6087 18.678 13.7021 18.7157C13.7955 18.7534 13.8955 18.772 13.9962 18.7702C14.0969 18.7684 14.1963 18.7464 14.2883 18.7054C14.3803 18.6644 14.4631 18.6053 14.5317 18.5316L20.5322 12.5311C20.6727 12.3905 20.7516 12.1998 20.7516 12.001C20.7516 11.8023 20.6727 11.6116 20.5322 11.471L14.5317 5.47052C14.3911 5.33006 14.2005 5.25116 14.0017 5.25116C13.8029 5.25116 13.6123 5.33006 13.4717 5.47052Z" fill="#E9FFF2"/>
</svg>
